<?xml version="1.0" encoding="UTF-8" standalone="no"?>
<!-- Created with Inkscape (http://www.inkscape.org/) -->

<svg
   width="14.440185mm"
   height="11.514661mm"
   viewBox="0 0 14.440185 11.514661"
   version="1.1"
   id="svg1475"
   inkscape:version="1.4.3 (0d15f75042, 2025-12-25)"
   sodipodi:docname="ikemacs-logo.svg"
   xmlns:inkscape="http://www.inkscape.org/namespaces/inkscape"
   xmlns:sodipodi="http://sodipodi.sourceforge.net/DTD/sodipodi-0.dtd"
   xmlns="http://www.w3.org/2000/svg"
   xmlns:svg="http://www.w3.org/2000/svg"
   xmlns:rdf="http://www.w3.org/1999/02/22-rdf-syntax-ns#"
   xmlns:cc="http://creativecommons.org/ns#"
   xmlns:dc="http://purl.org/dc/elements/1.1/">
  <defs
     id="defs1469" />
  <sodipodi:namedview
     id="base"
     pagecolor="#ffffff"
     bordercolor="#666666"
     borderopacity="1.0"
     inkscape:pageopacity="0.0"
     inkscape:pageshadow="2"
     inkscape:zoom="8"
     inkscape:cx="10.6875"
     inkscape:cy="20.6875"
     inkscape:document-units="mm"
     inkscape:current-layer="layer1"
     showgrid="false"
     inkscape:window-width="2560"
     inkscape:window-height="1371"
     inkscape:window-x="0"
     inkscape:window-y="0"
     inkscape:window-maximized="1"
     inkscape:showpageshadow="0"
     inkscape:pagecheckerboard="0"
     inkscape:deskcolor="#505050" />
  <metadata
     id="metadata1472">
    <rdf:RDF>
      <cc:Work
         rdf:about="">
        <dc:format>image/svg+xml</dc:format>
        <dc:type
           rdf:resource="http://purl.org/dc/dcmitype/StillImage" />
        <dc:title />
      </cc:Work>
    </rdf:RDF>
  </metadata>
  <g
     inkscape:label="Layer 1"
     inkscape:groupmode="layer"
     id="layer1"
     transform="translate(-4.497172,-2.46886)">
    <path
       style="font-style:normal;font-variant:normal;font-weight:normal;font-stretch:normal;font-size:medium;line-height:1.25;font-family:Young;-inkscape-font-specification:Young;letter-spacing:0px;word-spacing:0px;fill:#ffffff;fill-opacity:1;stroke:none;stroke-width:1.39613259"
       d="M 0,0 V 43.519531 H 54.576172 V 0 Z M 3.7597656,3.7597656 H 50.816406 V 39.759766 H 3.7597656 Z"
       id="path1412"
       inkscape:connector-curvature="0"
       sodipodi:nodetypes="cccccccccc"
       transform="matrix(0.26458333,0,0,0.26458333,4.497172,2.46886)" />
    <path
       style="font-style:normal;font-variant:normal;font-weight:normal;font-stretch:normal;font-size:medium;line-height:1.25;font-family:Young;-inkscape-font-specification:Young;letter-spacing:0px;word-spacing:0px;fill:#ffffff;fill-opacity:1;stroke:none;stroke-width:0.92868555"
       d="M 7.9667969 7.7792969 L 7.9667969 11.539062 L 13.203125 11.539062 L 13.203125 31.980469 L 7.9667969 31.980469 L 7.9667969 35.740234 L 24.636719 35.740234 L 21.771484 31.980469 L 16.962891 31.980469 L 16.962891 11.539062 L 21.771484 11.539062 L 24.626953 7.7792969 L 7.9667969 7.7792969 z "
       transform="matrix(0.26458333,0,0,0.26458333,4.497172,2.46886)"
       id="path1080" />
    <path
       style="font-style:normal;font-variant:normal;font-weight:normal;font-stretch:normal;font-size:medium;line-height:1.25;font-family:Young;-inkscape-font-specification:Young;letter-spacing:0px;word-spacing:0px;fill:#ffffff;fill-opacity:1;stroke:none;stroke-width:0.99999994"
       d="M 30.132812 7.7792969 L 19.521484 21.755859 L 30.173828 35.740234 L 34.8125 35.740234 L 24.173828 21.740234 L 34.732422 7.7792969 L 30.132812 7.7792969 z "
       transform="matrix(0.26458333,0,0,0.26458333,4.497172,2.46886)"
       id="path1082" />
    <path
       style="font-style:normal;font-variant:normal;font-weight:normal;font-stretch:normal;font-size:medium;line-height:1.25;font-family:Young;-inkscape-font-specification:Young;letter-spacing:0px;word-spacing:0px;fill:#ffffff;fill-opacity:1;stroke:none;stroke-width:0.53850806"
       d="M 39.105469 7.7792969 L 36.326172 11.453125 L 46.611328 11.453125 L 46.611328 7.7792969 L 39.105469 7.7792969 z M 36.253906 19.839844 L 36.253906 23.599609 L 46.373047 23.599609 L 46.373047 19.839844 L 36.253906 19.839844 z M 36.396484 32.066406 L 39.1875 35.740234 L 46.611328 35.740234 L 46.611328 32.066406 L 36.396484 32.066406 z "
       transform="matrix(0.26458333,0,0,0.26458333,4.497172,2.46886)"
       id="path1102" />
  </g>
</svg>
